# xmcd
#
# Track frame offsets: 
#        150
#        26919
#        40607
#        58491
#        73178
#        96956
#        116494
#        132179
#        149694
#        165118
#
# Disc length: 2453 seconds
#
# Revision: 0
# Processed by: cddbd v1.5PL3 Copyright (c) Steve Scherf et al.
# Submitted via: ExactAudioCopy v0.95a4
#
DISCID=9109930a
DTITLE=Various Artist - Blues Today volume III
DYEAR=2002
DGENRE=Blues
TTITLE0=Wind Up From Mexico
TTITLE1=Blues Today
TTITLE2=Storm a Brewin
TTITLE3=Thumbnail Moon
TTITLE4=Alameda
TTITLE5=2nd Shoe
TTITLE6=Seem to Be
TTITLE7=Never Stray
TTITLE8=Lovers
TTITLE9=Reunion
EXTD=
EXTT0=
EXTT1=
EXTT2=
EXTT3=
EXTT4=
EXTT5=
EXTT6=
EXTT7=
EXTT8=
EXTT9=
PLAYORDER=
